<mxfile host="app.diagrams.net" modified="2023-09-07T19:17:41.455Z" agent="Mozilla/5.0 (Windows NT 10.0; Win64; x64) AppleWebKit/537.36 (KHTML, like Gecko) Chrome/116.0.0.0 Safari/537.36" etag="s_TJxYHZB8XMEJMsUYdC" version="21.7.2" type="github">
  <diagram name="Page-1" id="9DBywN9aCltzqQnz2_Jm">
    <mxGraphModel dx="1434" dy="816" grid="1" gridSize="10" guides="1" tooltips="1" connect="1" arrows="1" fold="1" page="1" pageScale="1" pageWidth="850" pageHeight="1100" math="0" shadow="0">
      <root>
        <mxCell id="0" />
        <mxCell id="1" parent="0" />
        <mxCell id="7cC2A6puHsXFScCiI9hC-2" value="&lt;b&gt;capstone1-vpc- US-West2 -&amp;nbsp;10.10.0.0/16&lt;/b&gt;" style="points=[[0,0],[0.25,0],[0.5,0],[0.75,0],[1,0],[1,0.25],[1,0.5],[1,0.75],[1,1],[0.75,1],[0.5,1],[0.25,1],[0,1],[0,0.75],[0,0.5],[0,0.25]];outlineConnect=0;gradientColor=none;html=1;whiteSpace=wrap;fontSize=12;fontStyle=0;container=1;pointerEvents=0;collapsible=0;recursiveResize=0;shape=mxgraph.aws4.group;grIcon=mxgraph.aws4.group_vpc;strokeColor=#248814;fillColor=none;verticalAlign=top;align=left;spacingLeft=30;fontColor=#AAB7B8;dashed=0;" vertex="1" parent="1">
          <mxGeometry x="40" y="120" width="760" height="640" as="geometry" />
        </mxCell>
        <mxCell id="7cC2A6puHsXFScCiI9hC-11" value="capstone1-private-subnet" style="rounded=1;arcSize=10;dashed=0;fillColor=none;gradientColor=none;strokeWidth=2;align=right;verticalAlign=top;fontStyle=1" vertex="1" parent="7cC2A6puHsXFScCiI9hC-2">
          <mxGeometry x="42.5" y="280" width="677.5" height="330" as="geometry" />
        </mxCell>
        <mxCell id="7cC2A6puHsXFScCiI9hC-12" value="" style="dashed=0;html=1;shape=mxgraph.aws3.permissions;fillColor=#D9A741;gradientColor=none;dashed=0;" vertex="1" parent="7cC2A6puHsXFScCiI9hC-2">
          <mxGeometry x="50" y="280" width="30" height="35" as="geometry" />
        </mxCell>
        <mxCell id="7cC2A6puHsXFScCiI9hC-15" value="capstone1-public-subnet" style="rounded=1;arcSize=10;dashed=0;fillColor=none;gradientColor=none;strokeWidth=2;align=right;verticalAlign=top;" vertex="1" parent="7cC2A6puHsXFScCiI9hC-2">
          <mxGeometry x="114" y="50" width="606" height="200" as="geometry" />
        </mxCell>
        <mxCell id="7cC2A6puHsXFScCiI9hC-18" value="10.10.0.0/24" style="shape=mxgraph.ibm.box;prType=subnet;fontStyle=0;verticalAlign=top;align=left;spacingLeft=32;spacingTop=4;fillColor=#E6F0E2;rounded=0;whiteSpace=wrap;html=1;strokeColor=#00882B;strokeWidth=1;dashed=0;container=1;spacing=-4;collapsible=0;expand=0;recursiveResize=0;" vertex="1" parent="7cC2A6puHsXFScCiI9hC-2">
          <mxGeometry x="149" y="110" width="131" height="120" as="geometry" />
        </mxCell>
        <mxCell id="7cC2A6puHsXFScCiI9hC-52" value="capstone1-ops-server" style="outlineConnect=0;dashed=0;verticalLabelPosition=bottom;verticalAlign=top;align=center;html=1;shape=mxgraph.aws3.ec2;fillColor=#F58534;gradientColor=none;" vertex="1" parent="7cC2A6puHsXFScCiI9hC-18">
          <mxGeometry x="32" y="35" width="28" height="35" as="geometry" />
        </mxCell>
        <mxCell id="7cC2A6puHsXFScCiI9hC-19" value="10.10.2.0/24" style="shape=mxgraph.ibm.box;prType=subnet;fontStyle=0;verticalAlign=top;align=left;spacingLeft=32;spacingTop=4;fillColor=#E6F0E2;rounded=0;whiteSpace=wrap;html=1;strokeColor=#00882B;strokeWidth=1;dashed=0;container=1;spacing=-4;collapsible=0;expand=0;recursiveResize=0;" vertex="1" parent="7cC2A6puHsXFScCiI9hC-2">
          <mxGeometry x="429" y="110" width="140" height="120" as="geometry" />
        </mxCell>
        <mxCell id="7cC2A6puHsXFScCiI9hC-20" value="&lt;b&gt;capstone1-auto-scaling-group&lt;/b&gt;" style="rounded=1;whiteSpace=wrap;html=1;dashed=1;strokeWidth=3;align=center;labelPosition=center;verticalLabelPosition=top;verticalAlign=bottom;" vertex="1" parent="7cC2A6puHsXFScCiI9hC-2">
          <mxGeometry x="177.5" y="360" width="370" height="150" as="geometry" />
        </mxCell>
        <mxCell id="7cC2A6puHsXFScCiI9hC-14" value="10.10.3.0/24" style="sketch=0;outlineConnect=0;gradientColor=none;html=1;whiteSpace=wrap;fontSize=12;fontStyle=0;shape=mxgraph.aws4.group;grIcon=mxgraph.aws4.group_subnet;strokeColor=#879196;fillColor=none;verticalAlign=top;align=left;spacingLeft=30;fontColor=#879196;dashed=0;" vertex="1" parent="7cC2A6puHsXFScCiI9hC-2">
          <mxGeometry x="222.5" y="380" width="116" height="110" as="geometry" />
        </mxCell>
        <mxCell id="7cC2A6puHsXFScCiI9hC-13" value="10.10.4.0/24" style="sketch=0;outlineConnect=0;gradientColor=none;html=1;whiteSpace=wrap;fontSize=12;fontStyle=0;shape=mxgraph.aws4.group;grIcon=mxgraph.aws4.group_subnet;strokeColor=#879196;fillColor=none;verticalAlign=top;align=center;spacingLeft=30;fontColor=#879196;dashed=0;" vertex="1" parent="7cC2A6puHsXFScCiI9hC-2">
          <mxGeometry x="389.5" y="380" width="120" height="100" as="geometry" />
        </mxCell>
        <mxCell id="7cC2A6puHsXFScCiI9hC-21" value="capstone1-efs" style="outlineConnect=0;dashed=0;verticalLabelPosition=bottom;verticalAlign=top;align=center;html=1;shape=mxgraph.aws3.efs_share;fillColor=#E05243;gradientColor=none;" vertex="1" parent="7cC2A6puHsXFScCiI9hC-2">
          <mxGeometry x="330.5" y="520" width="40" height="40" as="geometry" />
        </mxCell>
        <mxCell id="7cC2A6puHsXFScCiI9hC-32" value="" style="edgeStyle=orthogonalEdgeStyle;rounded=0;orthogonalLoop=1;jettySize=auto;html=1;" edge="1" parent="7cC2A6puHsXFScCiI9hC-2" source="7cC2A6puHsXFScCiI9hC-30" target="7cC2A6puHsXFScCiI9hC-21">
          <mxGeometry relative="1" as="geometry">
            <mxPoint x="278.5" y="535" as="targetPoint" />
            <Array as="points">
              <mxPoint x="278.5" y="490" />
              <mxPoint x="279.5" y="490" />
              <mxPoint x="279.5" y="540" />
            </Array>
          </mxGeometry>
        </mxCell>
        <mxCell id="7cC2A6puHsXFScCiI9hC-39" value="EFS Mount" style="edgeLabel;html=1;align=center;verticalAlign=middle;resizable=0;points=[];" vertex="1" connectable="0" parent="7cC2A6puHsXFScCiI9hC-32">
          <mxGeometry x="-0.2993" y="-1" relative="1" as="geometry">
            <mxPoint as="offset" />
          </mxGeometry>
        </mxCell>
        <mxCell id="7cC2A6puHsXFScCiI9hC-30" value="Jenkins Master&amp;nbsp;" style="outlineConnect=0;dashed=0;verticalLabelPosition=bottom;verticalAlign=top;align=center;html=1;shape=mxgraph.aws3.ec2;fillColor=#F58534;gradientColor=none;" vertex="1" parent="7cC2A6puHsXFScCiI9hC-2">
          <mxGeometry x="253.5" y="415" width="50" height="40" as="geometry" />
        </mxCell>
        <mxCell id="7cC2A6puHsXFScCiI9hC-33" value="Jenkins Master&amp;nbsp;" style="outlineConnect=0;dashed=0;verticalLabelPosition=bottom;verticalAlign=top;align=center;html=1;shape=mxgraph.aws3.ec2;fillColor=#F58534;gradientColor=none;" vertex="1" parent="7cC2A6puHsXFScCiI9hC-2">
          <mxGeometry x="424.5" y="410" width="50" height="40" as="geometry" />
        </mxCell>
        <mxCell id="7cC2A6puHsXFScCiI9hC-37" value="" style="endArrow=classic;html=1;rounded=0;exitX=0.5;exitY=1;exitDx=0;exitDy=0;exitPerimeter=0;" edge="1" parent="7cC2A6puHsXFScCiI9hC-2" source="7cC2A6puHsXFScCiI9hC-33">
          <mxGeometry width="50" height="50" relative="1" as="geometry">
            <mxPoint x="455.5" y="460" as="sourcePoint" />
            <mxPoint x="349.5" y="540" as="targetPoint" />
            <Array as="points">
              <mxPoint x="445.5" y="540" />
            </Array>
          </mxGeometry>
        </mxCell>
        <mxCell id="7cC2A6puHsXFScCiI9hC-38" value="EFS Mount" style="edgeLabel;html=1;align=center;verticalAlign=middle;resizable=0;points=[];" vertex="1" connectable="0" parent="7cC2A6puHsXFScCiI9hC-37">
          <mxGeometry x="-0.5056" y="1" relative="1" as="geometry">
            <mxPoint as="offset" />
          </mxGeometry>
        </mxCell>
        <mxCell id="7cC2A6puHsXFScCiI9hC-50" value="" style="outlineConnect=0;dashed=0;verticalLabelPosition=bottom;verticalAlign=top;align=center;html=1;shape=mxgraph.aws3.auto_scaling;fillColor=#F58534;gradientColor=none;" vertex="1" parent="7cC2A6puHsXFScCiI9hC-2">
          <mxGeometry x="183.5" y="360" width="20" height="20" as="geometry" />
        </mxCell>
        <mxCell id="7cC2A6puHsXFScCiI9hC-51" value="" style="outlineConnect=0;dashed=0;verticalLabelPosition=bottom;verticalAlign=top;align=center;html=1;shape=mxgraph.aws3.application_load_balancer;fillColor=#F58534;gradientColor=none;" vertex="1" parent="7cC2A6puHsXFScCiI9hC-2">
          <mxGeometry x="347.5" y="110" width="30" height="30" as="geometry" />
        </mxCell>
        <mxCell id="7cC2A6puHsXFScCiI9hC-61" value="&lt;font style=&quot;font-size: 9px;&quot;&gt;&lt;b&gt;Capstone1 NAT Gateway&lt;/b&gt;&lt;/font&gt;" style="sketch=0;outlineConnect=0;fontColor=#232F3E;gradientColor=none;fillColor=#4D27AA;strokeColor=none;dashed=0;verticalLabelPosition=bottom;verticalAlign=top;align=center;html=1;fontSize=12;fontStyle=0;aspect=fixed;pointerEvents=1;shape=mxgraph.aws4.nat_gateway;" vertex="1" parent="7cC2A6puHsXFScCiI9hC-2">
          <mxGeometry x="640" y="100" width="40" height="40" as="geometry" />
        </mxCell>
        <mxCell id="7cC2A6puHsXFScCiI9hC-68" value="" style="endArrow=classic;html=1;rounded=0;exitX=0.5;exitY=1;exitDx=0;exitDy=0;exitPerimeter=0;" edge="1" parent="7cC2A6puHsXFScCiI9hC-2" source="7cC2A6puHsXFScCiI9hC-51" target="7cC2A6puHsXFScCiI9hC-13">
          <mxGeometry width="50" height="50" relative="1" as="geometry">
            <mxPoint x="550" y="390" as="sourcePoint" />
            <mxPoint x="600" y="340" as="targetPoint" />
          </mxGeometry>
        </mxCell>
        <mxCell id="7cC2A6puHsXFScCiI9hC-69" value="" style="endArrow=classic;html=1;rounded=0;exitX=0.5;exitY=1;exitDx=0;exitDy=0;exitPerimeter=0;" edge="1" parent="7cC2A6puHsXFScCiI9hC-2" source="7cC2A6puHsXFScCiI9hC-51" target="7cC2A6puHsXFScCiI9hC-14">
          <mxGeometry width="50" height="50" relative="1" as="geometry">
            <mxPoint x="373" y="150" as="sourcePoint" />
            <mxPoint x="454" y="420" as="targetPoint" />
          </mxGeometry>
        </mxCell>
        <mxCell id="7cC2A6puHsXFScCiI9hC-23" value="10.10.3.0/24" style="sketch=0;outlineConnect=0;gradientColor=none;html=1;whiteSpace=wrap;fontSize=12;fontStyle=0;shape=mxgraph.aws4.group;grIcon=mxgraph.aws4.group_subnet;strokeColor=#879196;fillColor=none;verticalAlign=top;align=center;spacingLeft=30;fontColor=#879196;dashed=0;" vertex="1" parent="7cC2A6puHsXFScCiI9hC-2">
          <mxGeometry x="560" y="320" width="150" height="100" as="geometry" />
        </mxCell>
        <mxCell id="7cC2A6puHsXFScCiI9hC-25" value="Jenkins Agent" style="outlineConnect=0;dashed=0;verticalLabelPosition=bottom;verticalAlign=top;align=center;html=1;shape=mxgraph.aws3.ec2;fillColor=#F58534;gradientColor=none;" vertex="1" parent="7cC2A6puHsXFScCiI9hC-2">
          <mxGeometry x="576" y="340" width="50" height="40" as="geometry" />
        </mxCell>
        <mxCell id="7cC2A6puHsXFScCiI9hC-28" value="Jenkins Agent" style="outlineConnect=0;dashed=0;verticalLabelPosition=bottom;verticalAlign=top;align=center;html=1;shape=mxgraph.aws3.ec2;fillColor=#F58534;gradientColor=none;" vertex="1" parent="7cC2A6puHsXFScCiI9hC-2">
          <mxGeometry x="650" y="350" width="50" height="40" as="geometry" />
        </mxCell>
        <mxCell id="7cC2A6puHsXFScCiI9hC-54" style="edgeStyle=orthogonalEdgeStyle;rounded=0;orthogonalLoop=1;jettySize=auto;html=1;exitX=0.5;exitY=1;exitDx=0;exitDy=0;" edge="1" parent="1" source="7cC2A6puHsXFScCiI9hC-62" target="7cC2A6puHsXFScCiI9hC-51">
          <mxGeometry relative="1" as="geometry" />
        </mxCell>
        <mxCell id="7cC2A6puHsXFScCiI9hC-4" value="" style="image;aspect=fixed;perimeter=ellipsePerimeter;html=1;align=center;shadow=0;dashed=0;spacingTop=3;image=img/lib/active_directory/laptop_client.svg;" vertex="1" parent="1">
          <mxGeometry x="371" y="10" width="63" height="70" as="geometry" />
        </mxCell>
        <mxCell id="7cC2A6puHsXFScCiI9hC-66" value="" style="edgeStyle=orthogonalEdgeStyle;rounded=0;orthogonalLoop=1;jettySize=auto;html=1;exitX=0.5;exitY=1;exitDx=0;exitDy=0;" edge="1" parent="1" source="7cC2A6puHsXFScCiI9hC-4" target="7cC2A6puHsXFScCiI9hC-62">
          <mxGeometry relative="1" as="geometry">
            <mxPoint x="403" y="60" as="sourcePoint" />
            <mxPoint x="403" y="230" as="targetPoint" />
          </mxGeometry>
        </mxCell>
        <mxCell id="7cC2A6puHsXFScCiI9hC-62" value="Internet&#xa;gateway" style="sketch=0;outlineConnect=0;fontColor=#232F3E;gradientColor=none;strokeColor=#232F3E;fillColor=#ffffff;dashed=0;verticalLabelPosition=bottom;verticalAlign=top;align=center;html=1;fontSize=12;fontStyle=0;aspect=fixed;shape=mxgraph.aws4.resourceIcon;resIcon=mxgraph.aws4.internet_gateway;" vertex="1" parent="1">
          <mxGeometry x="382.5" y="140" width="40" height="40" as="geometry" />
        </mxCell>
        <mxCell id="7cC2A6puHsXFScCiI9hC-70" value="10.10.4.0/24" style="sketch=0;outlineConnect=0;gradientColor=none;html=1;whiteSpace=wrap;fontSize=12;fontStyle=0;shape=mxgraph.aws4.group;grIcon=mxgraph.aws4.group_subnet;strokeColor=#879196;fillColor=none;verticalAlign=top;align=center;spacingLeft=30;fontColor=#879196;dashed=0;" vertex="1" parent="1">
          <mxGeometry x="603" y="560" width="150" height="100" as="geometry" />
        </mxCell>
        <mxCell id="7cC2A6puHsXFScCiI9hC-71" value="Jenkins Agent" style="outlineConnect=0;dashed=0;verticalLabelPosition=bottom;verticalAlign=top;align=center;html=1;shape=mxgraph.aws3.ec2;fillColor=#F58534;gradientColor=none;" vertex="1" parent="1">
          <mxGeometry x="619" y="580" width="50" height="40" as="geometry" />
        </mxCell>
        <mxCell id="7cC2A6puHsXFScCiI9hC-72" value="Jenkins Agent" style="outlineConnect=0;dashed=0;verticalLabelPosition=bottom;verticalAlign=top;align=center;html=1;shape=mxgraph.aws3.ec2;fillColor=#F58534;gradientColor=none;" vertex="1" parent="1">
          <mxGeometry x="693" y="590" width="50" height="40" as="geometry" />
        </mxCell>
      </root>
    </mxGraphModel>
  </diagram>
</mxfile>
